<?xml version="1.0" standalone="no"?>
<!DOCTYPE svg PUBLIC "-//W3C//DTD SVG 20010904//EN"
 "http://www.w3.org/TR/2001/REC-SVG-20010904/DTD/svg10.dtd">
<svg version="1.0" xmlns="http://www.w3.org/2000/svg"
 width="50.000000pt" height="50.000000pt" viewBox="0 0 50.000000 50.000000"
 preserveAspectRatio="xMidYMid meet">

<g transform="translate(0.000000,50.000000) scale(0.100000,-0.100000)"
fill="#000000" stroke="none">
<path d="M71 433 c7 -10 26 -33 43 -50 l30 -33 150 0 150 0 -55 50 -54 49
-139 1 c-130 0 -138 -1 -125 -17z"/>
<path d="M50 295 l0 -130 40 -45 39 -45 0 130 0 130 -39 45 -39 45 -1 -130z"/>
<path d="M150 190 l0 -140 105 0 105 0 0 97 0 97 45 -44 45 -44 0 87 0 87
-150 0 -150 0 0 -140z"/>
<path d="M380 115 c1 -66 3 -85 11 -73 15 26 26 22 45 -13 11 -23 19 -28 27
-20 7 7 7 18 -1 36 -16 34 -16 33 13 37 25 3 23 6 -35 63 l-60 59 0 -89z"/>
</g>
</svg>
